<?xml version="1.0" encoding="UTF-8" standalone="no"?>
<svg
   fill="#000000"
   viewBox="0 0 24 24"
   version="1.1"
   id="svg1"
   sodipodi:docname="circle-slash.svg"
   inkscape:version="1.4 (86a8ad7, 2024-10-11)"
   xmlns:inkscape="http://www.inkscape.org/namespaces/inkscape"
   xmlns:sodipodi="http://sodipodi.sourceforge.net/DTD/sodipodi-0.dtd"
   xmlns="http://www.w3.org/2000/svg"
   xmlns:svg="http://www.w3.org/2000/svg">
  <defs
     id="defs1" />
  <sodipodi:namedview
     id="namedview1"
     pagecolor="#505050"
     bordercolor="#ffffff"
     borderopacity="1"
     inkscape:showpageshadow="0"
     inkscape:pageopacity="0"
     inkscape:pagecheckerboard="1"
     inkscape:deskcolor="#d1d1d1"
     inkscape:zoom="46.08758"
     inkscape:cx="11.998894"
     inkscape:cy="11.998894"
     inkscape:current-layer="svg1" />
  <path
     fill-rule="evenodd"
     d="M12 1C5.925 1 1 5.925 1 12s4.925 11 11 11 11-4.925 11-11S18.075 1 12 1zM2.5 12A9.5 9.5 0 0112 2.5c2.353 0 4.507.856 6.166 2.273L4.773 18.166A9.462 9.462 0 012.5 12zm3.334 7.227A9.462 9.462 0 0012 21.5a9.5 9.5 0 009.5-9.5 9.462 9.462 0 00-2.273-6.166L5.834 19.227z"
     id="path1"
     style="stroke:none;stroke-opacity:1;fill:#ffffff;fill-opacity:1" />
</svg>
